<svg xmlns="http://www.w3.org/2000/svg" xmlns:xlink="http://www.w3.org/1999/xlink" width="39.199" height="28.211" viewBox="0 0 39.199 28.211"><defs><clipPath id="a"><rect width="39.199" height="28.211" fill="none"/></clipPath></defs><g clip-path="url(#a)"><g transform="translate(-1171 -172)"><path d="M25.927,27.225a2.8,2.8,0,1,1-2.793-2.805,2.784,2.784,0,0,1,2.793,2.805ZM10.376,24.42a2.8,2.8,0,1,0,2.805,2.805,2.8,2.8,0,0,0-2.805-2.805ZM28.242,7.883C9.732,7.883,5.016,7.1,0,1.807c2.107,3.167,3.265,9.12,22.852,8.832,20.414-.306,7.962,5.274,4.336,11.57C38.624,12,46.751,7.883,28.242,7.883Z" transform="translate(1171 170.193)" fill="#fff"/></g></g></svg>