<svg xmlns="http://www.w3.org/2000/svg" width="20.412" height="20.45" viewBox="0 0 20.412 20.45"><path d="M15.159,5.207A4.634,4.634,0,0,1,18.82,8.868M15.159,1.5a8.341,8.341,0,0,1,7.368,7.359m-.927,7.4v2.78a1.854,1.854,0,0,1-2.02,1.854,18.341,18.341,0,0,1-8-2.845,18.072,18.072,0,0,1-5.561-5.561A18.341,18.341,0,0,1,3.175,4.447,1.854,1.854,0,0,1,5.02,2.427H7.8A1.854,1.854,0,0,1,9.654,4.021a11.9,11.9,0,0,0,.649,2.6,1.854,1.854,0,0,1-.417,1.956L8.708,9.758a14.829,14.829,0,0,0,5.561,5.561l1.177-1.177a1.854,1.854,0,0,1,1.956-.417,11.9,11.9,0,0,0,2.6.649A1.854,1.854,0,0,1,21.6,16.254Z" transform="translate(-2.667 -0.948)" fill="none" stroke="#fff" stroke-linecap="round" stroke-linejoin="round" stroke-width="1"/></svg>